# File created by Blade
# Date/Time:  Thu Jan 22 19:13:14 2015
# Frame Rate: 120.000 fps
#------------------------------------------------------
:FULLY-SPECIFIED
:DEGREES
1467
root 0.075800 27.304256 -2.597458 16.002291 -25.898831 4.773575
RightUpLeg -71.237783 -52.360240 13.290138
RightLeg 66.930202 -0.000000 -0.000000
RightFoot -25.819832 3.914114 0.680811
RightToeBase 0.481827 -0.000000 -0.000000
LeftUpLeg 0.942826 27.257453 26.692781
LeftLeg 5.032432 -0.000000 -0.000000
LeftFoot -11.826517 5.137010 -44.933769
LeftToeBase 10.445742 -0.000000 -0.000000
Spine -12.212768 3.746256 2.725080
RightShoulder -17.931823 -11.502001 -28.087736
RightArm 24.626474 51.886753 55.892509
RightForeArm 20.673751 -0.000000 21.637237
RightHand 18.955298 -0.000000 -2.541408
RightHandThumb1 -24.326973 -0.000000 -32.862282
LeftShoulder -26.551928 10.703529 27.495982
LeftArm -3.204213 -46.275839 -32.852270
LeftForeArm -1.992663 -0.000000 6.766198
LeftHand -0.183383 0.000000 3.972735
LeftHandThumb1 -26.253704 0.000000 33.147579
Head 7.873335 5.454774 -8.253211
1468
root 0.090949 27.317122 -2.584236 16.017452 -25.944339 4.781459
RightUpLeg -71.216670 -52.342118 13.274217
RightLeg 66.822444 -0.000000 -0.000000
RightFoot -25.717913 3.975974 0.729923
RightToeBase 0.430877 -0.000000 -0.000000
LeftUpLeg 0.951951 27.092860 26.631938
LeftLeg 5.040276 -0.000000 -0.000000
LeftFoot -11.939772 5.261880 -44.955330
LeftToeBase 10.420284 -0.000000 -0.000000
Spine -12.234252 4.023767 2.686316
RightShoulder -17.964339 -11.407350 -28.145896
RightArm 24.691114 51.961028 55.858078
RightForeArm 20.701693 -0.000000 21.475389
RightHand 18.943599 -0.000000 -2.451902
RightHandThumb1 -24.326973 -0.000000 -32.862282
LeftShoulder -26.506379 10.636545 27.616619
LeftArm -3.518615 -46.254335 -32.649163
LeftForeArm -2.576278 0.000000 6.584040
LeftHand -0.201874 -0.000000 4.015775
LeftHandThumb1 -26.253704 0.000000 33.147579
Head 7.715650 5.268989 -8.246275
1469
root 0.108989 27.329621 -2.569739 16.039066 -26.042504 4.771494
RightUpLeg -71.204668 -52.290015 13.269980
RightLeg 66.703964 -0.000000 -0.000000
RightFoot -25.610467 3.991221 0.706140
RightToeBase 0.237007 -0.000000 -0.000000
LeftUpLeg 1.021635 27.036669 26.592141
LeftLeg 5.003628 -0.000000 -0.000000
LeftFoot -12.009623 5.337320 -45.054011
LeftToeBase 10.406654 -0.000000 -0.000000
Spine -12.244964 4.343372 2.672202
RightShoulder -17.973602 -11.302170 -28.235291
RightArm 24.748604 52.027740 55.813891
RightForeArm 20.803012 0.000000 21.329939
RightHand 19.074250 -0.000000 -2.361293
RightHandThumb1 -24.326973 -0.000000 -32.862282
LeftShoulder -26.496853 10.564927 27.658037
LeftArm -3.856029 -46.360825 -32.391005
LeftForeArm -3.135999 0.000000 6.489567
LeftHand -0.173592 0.000000 4.143229
LeftHandThumb1 -26.253704 0.000000 33.147579
Head 7.542491 5.143398 -8.263713
1470
root 0.128341 27.340610 -2.555350 16.087767 -26.169796 4.747543
RightUpLeg -71.224317 -52.206363 13.290747
RightLeg 66.585960 -0.000000 -0.000000
RightFoot -25.491040 4.030466 0.709251
RightToeBase 0.486648 -0.000000 -0.000000
LeftUpLeg 1.107231 27.079898 26.553559
LeftLeg 4.929174 -0.000000 -0.000000
LeftFoot -12.076898 5.374949 -45.237963
LeftToeBase 10.476989 -0.000000 -0.000000
Spine -12.278331 4.657420 2.662584
RightShoulder -17.942985 -11.283980 -28.311878
RightArm 24.899935 52.093542 55.849931
RightForeArm 21.014259 -0.000000 21.233309
RightHand 19.004887 -0.000000 -2.418433
RightHandThumb1 -24.326973 -0.000000 -32.862282
LeftShoulder -26.593260 10.595693 27.667702
LeftArm -4.032763 -46.607918 -32.262945
LeftForeArm -3.585970 0.000000 6.474510
LeftHand -0.338887 -0.000000 4.292876
LeftHandThumb1 -26.253704 0.000000 33.147579
Head 7.373512 5.082524 -8.264748
1471
root 0.144822 27.350547 -2.543509 16.111588 -26.303889 4.705197
RightUpLeg -71.202665 -52.119879 13.300417
RightLeg 66.480569 -0.000000 -0.000000
RightFoot -25.364621 4.072384 0.687293
RightToeBase 0.328612 -0.000000 -0.000000
LeftUpLeg 1.240609 27.199271 26.579091
LeftLeg 4.863009 -0.000000 -0.000000
LeftFoot -12.003446 5.310719 -45.275810
LeftToeBase 10.348205 -0.000000 -0.000000
Spine -12.262549 4.974515 2.668951
RightShoulder -17.876139 -11.162505 -28.419918
RightArm 24.885968 52.173891 55.792251
RightForeArm 21.068289 -0.000000 21.212915
RightHand 18.968597 -0.000000 -2.297751
RightHandThumb1 -24.326973 -0.000000 -32.862282
LeftShoulder -26.683550 10.607595 27.656600
LeftArm -4.298884 -46.894267 -32.077014
LeftForeArm -4.217338 -0.000000 6.571126
LeftHand -0.470871 -0.000000 4.826619
LeftHandThumb1 -26.253704 0.000000 33.147579
Head 7.188611 5.006596 -8.290988
1472
root 0.164251 27.358569 -2.529007 16.111081 -26.425632 4.708775
RightUpLeg -71.225539 -52.090172 13.296485
RightLeg 66.406055 -0.000000 -0.000000
RightFoot -25.231591 4.163038 0.718778
RightToeBase 0.449361 -0.000000 -0.000000
LeftUpLeg 1.378573 27.366221 26.545252
LeftLeg 4.761272 -0.000000 -0.000000
LeftFoot -11.948285 5.242686 -45.367152
LeftToeBase 10.325078 -0.000000 -0.000000
Spine -12.249580 5.282906 2.630104
RightShoulder -17.823250 -10.981057 -28.539012
RightArm 24.779414 52.138577 55.633546
RightForeArm 21.400511 0.000000 21.188275
RightHand 19.030529 -0.000000 -2.542094
RightHandThumb1 -24.326973 -0.000000 -32.862282
LeftShoulder -26.765440 10.611863 27.634178
LeftArm -4.558107 -47.192481 -31.863666
LeftForeArm -4.626012 0.000000 6.664508
LeftHand -0.624855 -0.000000 5.189417
LeftHandThumb1 -26.253704 0.000000 33.147579
Head 7.005056 4.936278 -8.292316
1473
root 0.180130 27.365881 -2.512572 16.094670 -26.563166 4.693947
RightUpLeg -71.220743 -52.066428 13.302160
RightLeg 66.320054 -0.000000 -0.000000
RightFoot -25.155501 4.145195 0.611442
RightToeBase 0.567497 -0.000000 -0.000000
LeftUpLeg 1.586091 27.574585 26.566584
LeftLeg 4.618805 -0.000000 -0.000000
LeftFoot -11.793284 5.131659 -45.372133
LeftToeBase 10.269330 -0.000000 -0.000000
Spine -12.220408 5.625524 2.581251
RightShoulder -17.770858 -10.873203 -28.605491
RightArm 24.766934 52.218621 55.585972
RightForeArm 21.795501 -0.000000 21.210405
RightHand 19.107511 0.000000 -2.409420
RightHandThumb1 -24.326973 -0.000000 -32.862282
LeftShoulder -26.818222 10.620290 27.647108
LeftArm -4.885663 -47.554113 -31.640496
LeftForeArm -4.899081 0.000000 6.835246
LeftHand -0.705649 -0.000000 5.328908
LeftHandThumb1 -26.253704 0.000000 33.147579
Head 6.831605 4.808973 -8.288397
1474
root 0.201184 27.374891 -2.504245 16.131164 -26.657861 4.690827
RightUpLeg -71.346414 -52.062148 13.403940
RightLeg 66.245686 -0.000000 -0.000000
RightFoot -24.983582 4.240055 0.566516
RightToeBase 0.487875 -0.000000 -0.000000
LeftUpLeg 1.669507 27.675476 26.530771
LeftLeg 4.513880 -0.000000 -0.000000
LeftFoot -11.731416 5.075878 -45.451126
LeftToeBase 10.202204 -0.000000 -0.000000
Spine -12.241090 5.940138 2.539326
RightShoulder -17.697310 -10.759623 -28.709099
RightArm 24.818256 52.367126 55.680630
RightForeArm 22.064374 -0.000000 21.262432
RightHand 19.209213 -0.000000 -2.848184
RightHandThumb1 -24.326973 -0.000000 -32.862282
LeftShoulder -26.862892 10.625489 27.632581
LeftArm -5.216235 -47.859721 -31.402139
LeftForeArm -5.283294 -0.000000 7.017472
LeftHand -0.778425 -0.000000 5.353090
LeftHandThumb1 -26.253704 0.000000 33.147579
Head 6.665179 4.683865 -8.317399
1475
root 0.221689 27.381407 -2.493870 16.155322 -26.710124 4.713551
RightUpLeg -71.523266 -52.134851 13.535690
RightLeg 66.204186 -0.000000 -0.000000
RightFoot -24.856994 4.302892 0.502552
RightToeBase 0.544257 -0.000000 -0.000000
LeftUpLeg 1.732072 27.701386 26.475970
LeftLeg 4.402428 -0.000000 -0.000000
LeftFoot -11.682740 5.016910 -45.518857
LeftToeBase 10.177474 -0.000000 -0.000000
Spine -12.273246 6.195503 2.485386
RightShoulder -17.648912 -10.708415 -28.796160
RightArm 24.980941 52.553528 55.894879
RightForeArm 22.552722 0.000000 21.409715
RightHand 19.363321 -0.000000 -2.914352
RightHandThumb1 -24.326973 -0.000000 -32.862282
LeftShoulder -26.928793 10.669050 27.602160
LeftArm -5.494452 -48.135691 -31.187721
LeftForeArm -5.568384 -0.000000 7.181029
LeftHand -0.803478 -0.000000 5.472252
LeftHandThumb1 -26.253704 0.000000 33.147579
Head 6.515611 4.575711 -8.368700
